<svg width="21" height="16" viewBox="0 0 21 16" fill="none" xmlns="http://www.w3.org/2000/svg">
<path d="M8.775 15.4512C9.15469 15.5848 9.5625 15.307 9.5625 14.9062V1.63828C9.5625 1.49062 9.50625 1.34297 9.38672 1.25156C8.69766 0.703125 7.11562 0 5.0625 0C3.28711 0 1.62773 0.467578 0.636328 0.847266C0.239063 1.00195 0 1.3957 0 1.82109V14.8395C0 15.2578 0.45 15.5496 0.847266 15.4195C1.95469 15.0504 3.70898 14.625 5.0625 14.625C6.2543 14.625 7.83984 15.1172 8.775 15.4512ZM11.475 15.4512C12.4102 15.1172 13.9957 14.625 15.1875 14.625C16.541 14.625 18.2953 15.0504 19.4027 15.4195C19.8 15.5531 20.25 15.2578 20.25 14.8395V1.82109C20.25 1.3957 20.0109 1.00195 19.6137 0.850781C18.6223 0.467578 16.9629 0 15.1875 0C13.1344 0 11.5523 0.703125 10.8633 1.25156C10.7473 1.34297 10.6875 1.49062 10.6875 1.63828V14.9062C10.6875 15.307 11.0988 15.5848 11.475 15.4512Z" fill="#6A0572"/>
</svg>
