<svg width="11" height="18" viewBox="0 0 11 18" fill="none" xmlns="http://www.w3.org/2000/svg">
<path d="M5.11748 0C5.73975 0 6.24248 0.502734 6.24248 1.125V2.38008C6.29873 2.38711 6.35147 2.39414 6.40772 2.40469C6.42178 2.4082 6.43233 2.4082 6.44639 2.41172L8.13389 2.72109C8.74561 2.83359 9.1499 3.4207 9.0374 4.02891C8.9249 4.63711 8.3378 5.04492 7.72959 4.93242L6.05967 4.62656C4.95928 4.46484 3.98897 4.57383 3.30694 4.84453C2.6249 5.11523 2.35069 5.48789 2.2874 5.83242C2.21709 6.20859 2.26983 6.41953 2.32959 6.54961C2.39287 6.68672 2.52295 6.84141 2.77959 7.01367C3.35264 7.38984 4.23154 7.63594 5.37061 7.93828L5.47256 7.96641C6.47803 8.23359 7.7085 8.55703 8.62256 9.15469C9.12178 9.48164 9.59287 9.92461 9.88467 10.5434C10.1835 11.1727 10.2468 11.8758 10.1097 12.6246C9.86709 13.9605 8.946 14.8535 7.80342 15.3211C7.32178 15.518 6.79795 15.6445 6.24248 15.7078V16.875C6.24248 17.4973 5.73975 18 5.11748 18C4.49522 18 3.99248 17.4973 3.99248 16.875V15.648C3.97842 15.6445 3.96084 15.6445 3.94678 15.641H3.93975C3.08194 15.5074 1.67217 15.1383 0.722951 14.7164C0.156936 14.4633 -0.0997051 13.7988 0.15342 13.2328C0.406545 12.6668 1.071 12.4102 1.63701 12.6633C2.37178 12.9902 3.58115 13.3137 4.28076 13.4227C5.40225 13.5879 6.32686 13.493 6.95264 13.2363C7.54678 12.9937 7.81748 12.6422 7.89483 12.2203C7.96162 11.8477 7.90889 11.6332 7.84912 11.5031C7.78233 11.3625 7.65225 11.2078 7.39209 11.0355C6.81553 10.6594 5.93311 10.4133 4.79053 10.1109L4.69209 10.0863C3.69014 9.81914 2.45967 9.49219 1.54561 8.89453C1.04639 8.56758 0.578811 8.12109 0.287014 7.50234C-0.00829879 6.87305 -0.0680645 6.16992 0.0725605 5.42109C0.325686 4.07812 1.33115 3.20625 2.47373 2.75273C2.94131 2.56641 3.45459 2.43984 3.99248 2.36602V1.125C3.99248 0.502734 4.49522 0 5.11748 0Z" fill="#6A0572"/>
</svg>
