<svg width="16" height="18" viewBox="0 0 16 18" fill="none" xmlns="http://www.w3.org/2000/svg">
<path d="M3.375 0C1.51172 0 0 1.51172 0 3.375V14.625C0 16.4883 1.51172 18 3.375 18H13.5H14.625C15.2473 18 15.75 17.4973 15.75 16.875C15.75 16.2527 15.2473 15.75 14.625 15.75V13.5C15.2473 13.5 15.75 12.9973 15.75 12.375V1.125C15.75 0.502734 15.2473 0 14.625 0H13.5H3.375ZM3.375 13.5H12.375V15.75H3.375C2.75273 15.75 2.25 15.2473 2.25 14.625C2.25 14.0027 2.75273 13.5 3.375 13.5ZM4.5 5.0625C4.5 4.75313 4.75313 4.5 5.0625 4.5H11.8125C12.1219 4.5 12.375 4.75313 12.375 5.0625C12.375 5.37187 12.1219 5.625 11.8125 5.625H5.0625C4.75313 5.625 4.5 5.37187 4.5 5.0625ZM5.0625 6.75H11.8125C12.1219 6.75 12.375 7.00313 12.375 7.3125C12.375 7.62187 12.1219 7.875 11.8125 7.875H5.0625C4.75313 7.875 4.5 7.62187 4.5 7.3125C4.5 7.00313 4.75313 6.75 5.0625 6.75Z" fill="white"/>
</svg>
